<svg xmlns="http://www.w3.org/2000/svg" width="256" height="256" viewBox="0 0 256 256" version="1.1">

  <rect width="256" height="256" fill="#000000" rx="40"/>
 
  <path d="M 111 47.525 C 90.600 51.722, 70.836 65.466, 58.893 83.761 C 49.850 97.614, 46.504 109.620, 46.564 128 C 46.613 143.143, 47.968 149.712, 53.529 161.762 C 61.342 178.690, 62.725 178.869, 76.633 164.750 C 82.186 159.112, 87.013 153.684, 87.358 152.687 C 87.703 151.689, 87.244 149.439, 86.337 147.687 C 83.684 142.558, 82.024 134.982, 82.024 128 C 82.024 94.258, 116.142 72.683, 148 86.279 C 150.140 87.192, 152.277 87.468, 153.500 86.988 C 156.400 85.851, 176 65.579, 176 63.716 C 176 59.199, 160.703 51.221, 145 47.549 C 137.054 45.691, 119.973 45.679, 111 47.525 M 117.399 104.906 C 112.322 107.212, 106.985 112.446, 104.459 117.597 C 101.695 123.234, 101.834 134.126, 104.741 139.634 C 109.773 149.170, 117.545 153.956, 128 153.956 C 138.455 153.956, 146.227 149.170, 151.259 139.634 C 154.663 133.183, 154.372 123.101, 150.582 116.246 C 147.511 110.690, 143.250 106.838, 137.532 104.449 C 132.625 102.398, 122.410 102.631, 117.399 104.906 M 90.750 179.777 C 84.041 186.595, 80 191.482, 80 192.778 C 80 195.438, 83.642 198.272, 92.596 202.578 C 104.387 208.250, 113.631 210.254, 128 210.254 C 142.369 210.254, 151.613 208.250, 163.404 202.578 C 172.358 198.272, 176 195.438, 176 192.778 C 176 190.176, 155.364 169, 152.829 169 C 151.846 169, 147.691 170.125, 143.595 171.500 C 133.899 174.755, 122.079 174.903, 114 171.870 C 102.549 167.572, 102.867 167.464, 90.750 179.777" 
  stroke="none" fill="#FFFFFF" fill-rule="evenodd"/>
</svg>
