<svg xmlns="http://www.w3.org/2000/svg" width="256" height="256" viewBox="0 0 259 194" version="1.1">
  <rect width="259" height="194" fill="#3a4dc6" rx="20" ry="20"/>
  <path d="M 114.500 23.387 C 94.561 27.214, 73.976 40.974, 64.500 56.808 C 61.990 61.002, 60.909 61.916, 57.885 62.401 C 51.978 63.348, 38.760 70.570, 33.230 75.873 C 26.605 82.225, 20.729 91.355, 17.826 99.810 C 14.798 108.625, 14.586 124.706, 17.387 133 C 22.156 147.122, 31.669 159.231, 43.157 165.804 C 46.230 167.562, 49.026 169, 49.372 169 C 49.717 169, 50 165.512, 50 161.250 L 49.999 153.500 45.024 149.215 C 34.300 139.980, 29.539 128.938, 30.201 114.839 C 30.554 107.319, 31.096 105.191, 34.320 98.668 C 40.436 86.292, 50.942 78.534, 65.123 75.921 L 71.621 74.724 75.035 68.112 C 77.149 64.017, 81.123 58.827, 85.474 54.477 C 104.116 35.842, 133.542 31.643, 157.314 44.225 C 170.692 51.306, 183.299 67.316, 187.557 82.631 L 189.255 88.736 196.347 89.396 C 214.846 91.115, 227.777 104.063, 228.770 121.861 C 229.492 134.817, 224.024 144.799, 212.508 151.548 L 208 154.190 208 161.036 C 208 164.801, 208.399 168.129, 208.887 168.430 C 210.881 169.663, 224.632 161.508, 230.572 155.570 C 256.165 129.984, 242.827 86.579, 206.246 76.409 C 202.811 75.454, 200 74.123, 200 73.452 C 200 70.608, 191.681 55.980, 186.495 49.704 C 177.108 38.343, 161.197 28.314, 146.500 24.491 C 138.028 22.288, 122.938 21.767, 114.500 23.387 M 71.232 99.267 C 65.604 104.914, 61 110.089, 61 110.767 C 61 111.466, 62.279 112, 63.953 112 L 66.907 112 67.203 138.584 L 67.500 165.167 70.766 168.084 L 74.032 171 89.203 171 L 104.374 171 101.667 168.175 C 100.179 166.621, 98.519 163.811, 97.980 161.931 C 97.441 160.051, 97 148.048, 97 135.257 L 97 112 99.833 112 C 101.392 112, 102.982 111.685, 103.367 111.300 C 104.004 110.663, 83.246 89, 81.999 89 C 81.705 89, 76.860 93.620, 71.232 99.267 M 117.658 111.842 C 111.796 117.722, 107 122.863, 107 123.266 C 107 123.670, 108.316 124, 109.925 124 L 112.850 124 113.175 143.750 C 113.626 171.180, 113.472 171, 136.663 171 L 151.233 171 147.616 166.997 L 144 162.994 144 143.497 L 144 124 147 124 C 148.787 124, 150 123.477, 150 122.707 C 150 121.996, 145.121 116.855, 139.158 111.282 L 128.315 101.151 117.658 111.842 M 164.733 123.766 C 158.830 129.688, 154 134.863, 154 135.266 C 154 135.670, 155.317 136, 156.926 136 L 159.852 136 160.176 150.585 L 160.500 165.169 163.766 168.085 L 167.032 171 182.203 171 L 197.374 171 194.667 168.175 C 190.895 164.238, 190 160.225, 190 147.257 L 190 136 193.500 136 C 195.425 136, 197 135.655, 197 135.233 C 197 134.811, 192.155 129.636, 186.233 123.733 L 175.467 112.999 164.733 123.766"
    stroke="none" fill="#ffffff" fill-rule="evenodd"/>
</svg>
