<svg viewBox="0 0 24 24" xmlns="http://www.w3.org/2000/svg" width="225" height="225">
  <!-- Black rounded background -->
  <rect width="24" height="24" rx="3" fill="black" />
  
  <!-- White "U" -->
  <path d="M14.108 6.913h-0.933v6.702a2.88 2.88 0 0 1 -0.362 1.45c-0.24 0.424 -0.596 0.77 -1.025 1 -0.443 0.244 -0.96 0.365 -1.553 0.365 -0.592 0 -1.108 -0.121 -1.55 -0.364a2.603 2.603 0 0 1 -1.024 -1 2.865 2.865 0 0 1 -0.365 -1.45V6.912h-0.933v6.767a3.558 3.558 0 0 0 0.489 1.862c0.327 0.547 0.798 0.994 1.362 1.292 0.582 0.316 1.256 0.474 2.021 0.474 0.769 0 1.444 -0.157 2.024 -0.471a3.473 3.473 0 0 0 1.36 -1.293c0.33 -0.565 0.5 -1.21 0.49 -1.864V6.913Z" fill="white"/>
  
  <!-- White "I" -->
  <path d="M17.756 17.133V6.914h-0.933v10.22h0.933Z" fill="white"/>
</svg>
