<svg xmlns="http://www.w3.org/2000/svg" fill="none" viewBox="0 0 24 24" height="256" width="256" id="Jwt-Icon--Streamline-Svg-Logos">
  <defs>
    <linearGradient id="bgGradient" x1="0%" y1="0%" x2="100%" y2="100%">
      <stop offset="0%" stop-color="#a3fff9" />
      <stop offset="30%" stop-color="#a0e4ff" />
      <stop offset="65%" stop-color="#e49dff" />
      <stop offset="100%" stop-color="#ffa2bf" />
    </linearGradient>
  </defs>

  <!-- Mild rounded corners -->
  <rect width="100%" height="100%" rx="4" ry="4" fill="url(#bgGradient)" />

  <desc>Jwt Icon Streamline Icon: https://streamlinehq.com</desc>

  <path fill="#ffffff" d="M13.774325 6.5715 13.750825 0.25h-3.525l0.0235 6.3215 1.7625 2.4205 1.7625 -2.4205Z" stroke-width="0.25"/>
  <path fill="#ffffff" d="M10.2494 17.405025v6.345h3.525v-6.345l-1.7625 -2.4205 -1.7625 2.4205Z" stroke-width="0.25"/>
  <path fill="#00f2e6" d="m13.774175 17.405 3.713 5.123 2.8435 -2.068 -3.713 -5.123 -2.8435 -0.9165V17.405Z" stroke-width="0.25"/>
  <path fill="#00f2e6" d="M10.2493 6.571475 6.5128 1.4484875l-2.8435 2.0679875 3.713 5.123 2.867 0.9165v-2.9845Z" stroke-width="0.25"/>
  <path fill="#00b9f1" d="m7.382275 8.639475 -6.0159975 -1.9505 -1.081 3.337 6.0159975 1.974 2.8435 -0.94 -1.7625 -2.4205Z" stroke-width="0.25"/>
  <path fill="#00b9f1" d="m14.855225 12.9165 1.7625 2.4205 6.016 1.9505 1.081 -3.337L17.698725 12l-2.8435 0.9165Z" stroke-width="0.25"/>
  <path fill="#d63aff" d="m17.698725 11.999975 6.016 -1.974 -1.081 -3.337 -6.016 1.9505 -1.7625 2.4205 2.8435 0.94Z" stroke-width="0.25"/>
  <path fill="#d63aff" d="M6.301275 12 0.2852775 13.9505l1.081 3.337 6.0159975 -1.9505 1.7625 -2.4205L6.301275 12Z" stroke-width="0.25"/>
  <path fill="#fb015b" d="M7.3823 15.337 3.6693 20.46l2.8435 2.068 3.7365 -5.123V14.4205l-2.867 0.9165Z" stroke-width="0.25"/>
  <path fill="#fb015b" d="m16.617675 8.639475 3.713 -5.123 -2.8435 -2.0679875 -3.713 5.1229875v2.9845l2.8435 -0.9165Z" stroke-width="0.25"/>
</svg>
