<svg xmlns="http://www.w3.org/2000/svg" width="256" height="256" viewBox="0 0 1021 1024" version="1.1">

	<path d="M 0.144 240.750 C 0.226 378.855, 0.640 476.171, 1.115 469 C 3.607 431.386, 10.888 389.434, 19.251 364.511 C 24.426 349.087, 43.683 303.418, 53.621 283 C 89.929 208.404, 144.553 143.622, 210.517 96.925 C 246.713 71.302, 287.951 48.350, 320.809 35.540 C 365.234 18.220, 423.859 5.227, 474 1.589 C 490.173 0.416, 461.523 0.231, 246.250 0.123 L 0 0 0.144 240.750 M 557 1.579 C 641.840 7.688, 719.510 33.657, 788 78.813 C 815.209 96.753, 837.019 114.800, 863.034 140.903 C 912.369 190.405, 950.086 246.971, 978.876 314.635 C 999.891 364.027, 1015.153 423.002, 1018.953 469.500 C 1019.537 476.650, 1020.165 484.075, 1020.348 486 C 1020.530 487.925, 1020.752 379.363, 1020.840 244.750 L 1021 0 779.750 0.123 C 569.489 0.231, 540.876 0.418, 557 1.579 M 472 26.610 C 442.574 29.057, 419.186 32.956, 394 39.614 C 336.637 54.778, 280.581 81.603, 228.501 118.813 C 185.668 149.416, 158.256 174.532, 132.562 206.716 C 96.242 252.210, 67.402 308.435, 47.570 372.413 C 37.697 404.264, 33.044 427.086, 28.799 464.500 C 27.108 479.396, 27.132 536.650, 28.836 553.500 C 35.661 621.006, 50.372 675.628, 75.024 725 C 135.402 845.923, 230.871 930.112, 354 971.016 C 391.962 983.627, 420.665 989.795, 466.500 995.192 C 481.516 996.961, 541.772 996.938, 556.500 995.159 C 610.224 988.668, 652.239 978.363, 696.500 960.821 C 774.126 930.055, 845.102 875.576, 895.243 808.271 C 939.374 749.035, 971.537 674.237, 984.906 599.756 C 998.833 522.164, 994.767 453.487, 971.481 373 C 951.737 304.755, 930.387 259.008, 901.012 222 C 883.402 199.814, 852.085 165.966, 833.316 148.831 C 755.270 77.580, 662.835 36.060, 561.063 26.538 C 540.722 24.635, 495.315 24.672, 472 26.610 M 487 46.628 C 369.017 55.420, 274.225 98.593, 187.623 182.978 C 135.638 233.633, 97.830 294.625, 73.431 367.195 C 50.896 434.221, 44.776 510.914, 56.090 584.500 C 69.060 668.849, 103.620 745.786, 157.836 811 C 169.566 825.110, 195.717 851.448, 210.437 863.978 C 286.658 928.860, 379.562 967.822, 477.500 975.980 C 493.263 977.293, 532.550 977.275, 548.696 975.947 C 623.640 969.785, 694.475 946.162, 756.500 906.647 C 800.671 878.505, 843.583 839.222, 877.835 795.571 C 895.374 773.220, 907.136 753.487, 916.326 731 C 918.236 726.325, 923.491 714.175, 928.002 704 C 947.440 660.157, 951.026 650.558, 958.007 623.669 C 972.698 567.088, 975.534 493.628, 965.406 432 C 949.739 336.670, 907.399 252.877, 840.667 185.134 C 806.407 150.356, 775.685 126.507, 738.154 105.555 C 690.293 78.836, 614.470 55.340, 554 48.489 C 540.840 46.998, 498.004 45.808, 487 46.628 M 477.461 80.355 C 477.088 82.345, 476.979 93.991, 477.220 106.236 C 477.613 126.266, 477.881 129.073, 479.885 134.208 C 482.750 141.551, 489.686 147.998, 497.295 150.392 C 502.887 152.151, 517.170 152.723, 522.627 151.407 C 528.129 150.080, 534.799 146.053, 538.334 141.923 C 544.728 134.453, 545.296 131.496, 545.761 103.250 L 546.177 78 535.588 78 L 525 78 525 100.532 C 525 124.496, 524.518 127.501, 520.033 131.500 C 516.821 134.364, 507.239 134.310, 503.323 131.406 C 498.702 127.980, 498.118 124.522, 498.056 100.250 L 498 78 493.250 77.991 C 490.637 77.987, 486.169 77.703, 483.320 77.360 L 478.140 76.738 477.461 80.355 M 604.740 88.682 C 603.564 90.764, 599.977 104.153, 600.408 104.851 C 600.675 105.284, 605.193 106.907, 610.447 108.458 C 615.701 110.010, 620.005 111.779, 620.010 112.390 C 620.016 113, 616.566 124.863, 612.344 138.751 C 608.122 152.638, 604.925 164.258, 605.239 164.572 C 605.553 164.886, 609.898 166.414, 614.894 167.967 L 623.979 170.791 627.077 160.646 C 636.807 128.789, 640.003 118.664, 640.481 118.186 C 640.774 117.893, 645.398 119.037, 650.757 120.729 C 656.116 122.420, 660.771 123.638, 661.102 123.435 C 661.873 122.961, 666.421 107.053, 665.895 106.667 C 665.678 106.508, 652.518 102.436, 636.651 97.619 C 620.784 92.802, 607.217 88.637, 606.502 88.362 C 605.787 88.088, 604.994 88.232, 604.740 88.682 M 380.500 97.815 L 372.500 100.500 368.901 140 C 366.921 161.725, 365.448 179.676, 365.626 179.892 C 365.804 180.107, 370.461 178.853, 375.975 177.105 L 386 173.928 386.100 169.214 C 386.297 159.888, 386.178 160.002, 400.540 155.341 L 413.500 151.136 415.325 153.271 C 416.329 154.446, 418.476 156.917, 420.096 158.762 L 423.041 162.117 433.032 158.842 C 438.527 157.041, 442.905 155.230, 442.761 154.817 C 442.618 154.405, 431.094 140.777, 417.154 124.534 C 402.253 107.171, 391.126 95.027, 390.154 95.065 C 389.244 95.101, 384.900 96.339, 380.500 97.815 M 388.648 127.095 C 388.292 130.504, 388 135.446, 388 138.078 L 388 142.863 395.537 140.328 C 402.222 138.081, 402.931 137.608, 401.811 136.147 C 401.117 135.241, 398.314 131.800, 395.583 128.500 C 392.851 125.200, 390.320 122.139, 389.956 121.698 C 389.593 121.257, 389.004 123.685, 388.648 127.095 M 702.853 158.726 C 692.677 174.002, 683.568 187.704, 682.610 189.175 L 680.868 191.850 688.184 196.748 C 692.208 199.442, 696.048 201.969, 696.719 202.363 C 697.525 202.837, 700.542 199.168, 705.630 191.530 L 713.322 179.981 715.911 181.664 C 730.419 191.094, 734.867 194.414, 734.296 195.384 C 733.935 195.998, 730.571 201.097, 726.820 206.717 C 723.069 212.336, 720 217.165, 720 217.449 C 720 218.539, 736.468 228.929, 737.094 228.234 C 738.338 226.852, 776.124 169.841, 776.576 168.663 C 776.965 167.649, 762.460 157, 760.689 157 C 760.334 157, 756.819 161.838, 752.877 167.750 C 748.935 173.662, 745.559 178.679, 745.374 178.897 C 744.883 179.480, 724.038 165.640, 724.018 164.717 C 724.008 164.286, 727.150 159.238, 731 153.500 C 734.850 147.762, 737.994 142.714, 737.987 142.283 C 737.976 141.636, 724.261 132.132, 722.030 131.226 C 721.659 131.075, 713.029 143.450, 702.853 158.726 M 274.286 151.404 C 257.442 156.856, 245.057 173.156, 245.012 189.934 C 244.983 200.687, 251.368 213.232, 260.345 220.056 C 267.376 225.403, 274.035 227.513, 283.608 227.428 C 290.778 227.365, 292.601 226.937, 299.355 223.729 C 312.394 217.537, 320.573 207.143, 323.071 193.594 C 326.023 177.573, 316.753 160.434, 301.218 153.196 C 294.383 150.011, 281.283 149.139, 274.286 151.404 M 276.491 170.865 C 264.632 176.253, 261.621 190.048, 270.072 200.279 C 276.304 207.824, 285.326 209.957, 293.750 205.879 C 303.441 201.188, 306.482 189.229, 300.483 179.403 C 298.239 175.726, 296.134 173.812, 292.066 171.750 C 285.755 168.551, 282.049 168.340, 276.491 170.865 M 508.438 187.895 C 508.207 188.127, 508.544 188.950, 509.187 189.726 C 510.138 190.872, 507.144 194.349, 493.183 208.309 L 476.009 225.483 461.742 211.242 C 449.430 198.951, 444 194.819, 444 197.738 C 444 198.144, 450.632 205.119, 458.738 213.239 L 473.476 228.001 456.499 245.001 C 447.162 254.350, 439.062 262, 438.500 262 C 437.938 262, 429.839 254.351, 420.502 245.002 L 403.525 228.003 416.513 214.867 C 423.656 207.643, 428.676 202.017, 427.668 202.366 C 426.661 202.715, 425.354 203, 424.765 203 C 424.175 203, 418.582 208.042, 412.336 214.205 L 400.979 225.411 395.739 220.239 C 391.790 216.342, 390.131 215.298, 389 215.999 C 387.779 216.755, 388.521 217.962, 392.981 222.480 L 398.462 228.031 381.237 245.255 L 364.013 262.480 352.698 251.198 C 344.024 242.548, 340.968 240.075, 339.600 240.600 C 338.139 241.161, 339.960 243.435, 349.645 253.145 L 361.474 265.005 343.999 282.501 L 326.524 299.998 312.999 286.499 C 305.560 279.074, 298.917 273, 298.237 273 C 295.258 273, 297.832 276.358, 310.502 289.002 L 324.003 302.476 306.764 319.736 L 289.524 336.997 276.280 323.781 C 265.764 313.286, 262.782 310.818, 261.800 311.800 C 260.818 312.782, 263.286 315.764, 273.781 326.280 L 286.997 339.524 269.503 356.997 L 252.009 374.470 242.520 365.020 C 235.009 357.540, 232.774 355.826, 231.800 356.800 C 230.826 357.774, 232.541 360.010, 240.023 367.523 L 249.477 377.016 232.275 394.217 L 215.074 411.418 212.524 409.022 C 210.572 407.189, 209.698 406.902, 208.800 407.800 C 207.902 408.698, 208.176 409.559, 209.969 411.467 L 212.311 413.960 207.656 418.937 C 204.954 421.825, 203 424.864, 203 426.176 C 203 428.116, 203.855 427.591, 209.010 422.490 L 215.020 416.542 232.010 433.510 C 241.355 442.842, 249 450.938, 249 451.500 C 249 452.062, 241.352 460.160, 232.004 469.496 L 215.009 486.469 205.736 477.235 C 200.635 472.156, 196.133 468, 195.731 468 C 193.143 468, 196.184 472.650, 203.730 480.231 L 212.460 489.002 202.730 498.769 C 195.696 505.829, 193 509.219, 193 511.001 C 193 513.106, 194.609 511.862, 204.007 502.493 L 215.013 491.521 232.249 508.757 L 249.485 525.993 232.504 542.996 C 223.164 552.348, 215.264 560, 214.949 560 C 214.634 560, 209.923 555.612, 204.479 550.250 C 196.624 542.513, 194.501 540.889, 194.192 542.382 C 193.920 543.697, 196.614 547.087, 203.129 553.629 L 212.455 562.995 205.228 570.271 C 200.197 575.335, 198 578.293, 198 580.001 C 198 582.136, 199.107 581.355, 206.506 573.994 L 215.011 565.533 232.006 582.506 C 241.352 591.840, 249 599.938, 249 600.500 C 249 601.062, 241.379 609.133, 232.064 618.436 C 217.436 633.045, 214.914 635.174, 213.564 634.053 C 212.418 633.102, 212 633.072, 212 633.943 C 212 636.741, 215.165 640.458, 231.834 657.238 L 249.455 674.976 244.090 680.409 C 240.177 684.371, 238.908 686.318, 239.401 687.602 C 239.966 689.075, 241.049 688.399, 246.048 683.452 L 252.021 677.542 269.505 695.005 L 286.989 712.467 279.494 720.006 C 272.312 727.231, 270.575 730, 273.228 730 C 273.903 730, 277.848 726.628, 281.994 722.506 L 289.533 715.011 306.776 732.275 L 324.019 749.539 317.509 755.991 C 313.929 759.539, 311 763.018, 311 763.721 C 311 766.346, 313.734 764.827, 319.500 759 C 322.766 755.700, 325.906 753, 326.480 753 C 327.053 753, 335.150 760.638, 344.474 769.973 L 361.425 786.947 358.480 790.021 C 356.040 792.567, 355.788 793.251, 357.007 794.005 C 358.057 794.653, 359.279 794.149, 361.260 792.251 L 364.040 789.587 371.770 797.190 C 378.581 803.890, 384.251 808, 386.682 808 C 387.112 808, 382.752 803.272, 376.993 797.493 L 366.522 786.986 383.761 769.746 L 401 752.507 418.241 769.749 L 435.483 786.990 421.523 800.977 C 410.436 812.085, 407.818 815.218, 408.800 816.200 C 409.782 817.182, 412.914 814.565, 424.020 803.480 L 438.003 789.524 455.480 806.980 L 472.957 824.436 470.418 827.085 C 467.979 829.632, 467.958 829.756, 469.883 830.259 C 471.100 830.577, 472.550 830.050, 473.577 828.915 C 475.221 827.099, 475.348 827.115, 478.210 829.524 C 479.829 830.886, 482.107 832, 483.273 832 C 485.214 832, 485.124 831.723, 482.196 828.702 C 480.438 826.889, 479 824.971, 479 824.441 C 479 823.911, 486.652 815.836, 496.004 806.496 L 513.007 789.515 530.225 806.732 L 547.442 823.949 544.025 827.475 L 540.608 831 543.151 831 C 544.550 831, 546.736 830.096, 548.009 828.992 C 550.085 827.192, 550.497 827.140, 551.991 828.492 C 553.683 830.023, 557 830.567, 557 829.314 C 557 828.937, 556.079 827.649, 554.953 826.450 L 552.907 824.272 569.866 807.136 C 579.193 797.711, 587.045 790, 587.314 790 C 587.583 790, 593.622 795.865, 600.733 803.034 C 610.623 813.004, 614.076 815.908, 615.425 815.391 C 616.850 814.844, 614.548 812.069, 603.398 800.898 L 589.609 787.082 606.554 770.068 C 615.874 760.710, 623.955 753.042, 624.511 753.027 C 625.067 753.012, 633.160 760.648, 642.494 769.994 L 659.467 786.989 651.006 795.494 C 646.352 800.173, 642.894 804, 643.322 804 C 645.521 804, 651.123 800.180, 656.216 795.209 C 661.588 789.965, 662.042 789.728, 663.739 791.264 C 664.933 792.344, 666.033 792.597, 666.983 792.010 C 668.196 791.261, 668.123 790.793, 666.512 789.013 C 664.604 786.905, 664.611 786.896, 681.784 769.723 L 698.966 752.541 703.906 757.407 C 707.473 760.920, 709.334 762.086, 710.602 761.599 C 712.078 761.033, 711.496 760.052, 706.952 755.451 L 701.545 749.976 719.003 732.497 L 736.460 715.018 742.221 720.718 C 746.750 725.201, 748.242 726.158, 749.200 725.200 C 750.158 724.242, 749.201 722.750, 744.718 718.221 L 739.018 712.460 756.435 695.065 L 773.851 677.670 776.515 680.835 C 779.257 684.094, 782 685.014, 782 682.674 C 782 681.945, 780.875 680.292, 779.500 679 C 778.125 677.708, 777 676.157, 777 675.552 C 777 674.948, 780.618 670.864, 785.040 666.477 C 792.210 659.364, 798.842 650.509, 797.788 649.455 C 797.575 649.242, 792.255 654.227, 785.967 660.534 C 779.678 666.840, 774.070 672, 773.505 672 C 772.940 672, 764.838 664.350, 755.500 655 L 738.522 638 755.500 621 C 764.838 611.650, 772.928 604, 773.477 604 C 774.027 604, 781.356 610.862, 789.765 619.250 C 801.972 631.427, 805.244 634.198, 806 633 C 806.737 631.833, 803.627 628.171, 791.974 616.488 C 783.738 608.232, 777 601.027, 777 600.477 C 777 599.928, 784.646 591.841, 793.992 582.508 L 810.984 565.538 817.992 572.492 C 823.366 577.824, 825 578.978, 825 577.439 C 825 576.331, 822.536 572.998, 819.500 570 C 816.475 567.013, 814 564.093, 814 563.512 C 814 562.931, 817.825 558.651, 822.500 554 C 828.651 547.881, 831 544.852, 831 543.041 C 831 540.863, 829.730 541.803, 821.232 550.269 C 815.860 555.621, 811.017 560, 810.471 560 C 809.170 560, 777 527.781, 777 526.478 C 777 525.928, 784.649 517.839, 793.997 508.503 L 810.994 491.528 821.997 502.497 C 831.392 511.863, 833 513.106, 833 511.001 C 833 509.219, 830.304 505.829, 823.270 498.769 L 813.540 489.002 822.270 480.231 C 829.816 472.650, 832.857 468, 830.269 468 C 829.867 468, 825.365 472.156, 820.264 477.235 L 810.991 486.470 793.492 468.992 L 775.993 451.514 793.481 434.026 L 810.969 416.538 816.485 421.985 C 823.046 428.465, 824.321 426.473, 818 419.616 C 813.493 414.726, 813.375 414.348, 815.590 411.901 C 816.665 410.713, 816.890 409.627, 816.287 408.548 C 815.510 407.160, 815.080 407.286, 812.991 409.510 L 810.588 412.067 793.298 394.798 L 776.008 377.529 785.119 368.381 C 792.219 361.251, 794.031 358.878, 793.332 357.628 C 792.595 356.311, 790.833 357.633, 783.488 365.012 C 778.567 369.955, 774.077 374, 773.510 374 C 772.942 374, 764.839 366.351, 755.502 357.002 L 738.525 340.003 751.481 327.020 C 761.764 316.713, 764.181 313.781, 763.200 312.800 C 762.219 311.819, 759.302 314.220, 749.056 324.445 L 736.147 337.325 719.014 319.985 L 701.882 302.646 714.584 289.916 C 724.368 280.110, 727.128 276.776, 726.600 275.400 C 726.040 273.941, 723.473 276.050, 712.608 286.893 L 699.301 300.172 684.400 285.186 C 676.205 276.944, 668.396 269.017, 667.047 267.569 L 664.593 264.938 676.514 252.986 C 685.970 243.505, 688.179 240.779, 687.200 239.800 C 686.221 238.821, 683.528 240.997, 674.175 250.325 C 665.986 258.493, 661.944 261.868, 660.942 261.374 C 660.149 260.983, 652.315 253.313, 643.533 244.330 L 627.565 227.997 633.492 222.008 C 638.152 217.298, 639.158 215.758, 638.200 214.800 C 637.242 213.842, 635.700 214.849, 630.983 219.517 L 624.984 225.453 613.242 213.835 C 606.784 207.445, 600.517 201.718, 599.316 201.109 C 593.546 198.180, 595.631 201.106, 608.501 214.001 L 622.476 228.002 605.499 245.001 C 596.162 254.351, 588.062 262, 587.500 262 C 586.938 262, 578.838 254.350, 569.501 245.001 L 552.523 228.001 567.762 212.739 C 576.143 204.345, 583 197.144, 583 196.738 C 583 193.798, 577.503 198.018, 564.758 210.742 L 549.991 225.484 532.817 208.310 C 518.527 194.019, 515.847 190.890, 516.858 189.671 C 517.890 188.428, 517.378 188.152, 513.466 187.841 C 510.932 187.639, 508.670 187.664, 508.438 187.895 M 495.496 211.004 L 478.515 228.007 495.757 245.250 L 513 262.493 530.243 245.250 L 547.485 228.007 530.504 211.004 C 521.164 201.652, 513.287 194, 513 194 C 512.713 194, 504.836 201.652, 495.496 211.004 M 383.500 248 L 366.522 265 384 282.500 L 401.479 300 418.740 282.761 L 436 265.521 418.761 248.261 C 409.279 238.767, 401.287 231, 401 231 C 400.713 231, 392.838 238.650, 383.500 248 M 458.239 248.261 L 441 265.521 458.260 282.761 L 475.521 300 493 282.500 L 510.478 265 493.500 248 C 484.162 238.650, 476.287 231, 476 231 C 475.713 231, 467.721 238.767, 458.239 248.261 M 532.500 248 L 515.522 265 533 282.500 L 550.479 300 567.740 282.761 L 585 265.521 567.761 248.261 C 558.279 238.767, 550.287 231, 550 231 C 549.713 231, 541.838 238.650, 532.500 248 M 607.239 248.261 L 590 265.521 607.260 282.761 L 624.521 300 642 282.500 L 659.478 265 642.500 248 C 633.162 238.650, 625.287 231, 625 231 C 624.713 231, 616.721 238.767, 607.239 248.261 M 346.239 285.261 L 329 302.521 346.500 320 L 364 337.478 381 320.500 C 390.350 311.162, 398 303.062, 398 302.500 C 398 301.500, 364.965 268, 363.979 268 C 363.704 268, 355.721 275.767, 346.239 285.261 M 421.217 285.217 L 403.958 302.437 421.041 319.542 L 438.125 336.646 436.427 341.073 C 435.165 344.361, 430.716 349.549, 419.131 361.244 L 403.535 376.988 411.268 384.766 C 417.963 391.501, 420.768 396, 418.271 396 C 417.870 396, 413.817 392.295, 409.265 387.767 L 400.989 379.533 383.994 396.506 C 374.648 405.840, 367 413.909, 367 414.435 C 367 414.962, 374.862 423.185, 384.470 432.709 C 401.270 449.360, 401.902 450.130, 400.922 452.763 C 400.361 454.268, 392.394 463.035, 383.217 472.245 L 366.532 488.990 375.307 497.806 C 381.951 504.481, 383.916 507.054, 383.400 508.401 C 382.838 509.866, 381.067 508.536, 373.354 500.855 L 363.991 491.531 346.996 508.504 C 337.648 517.840, 330 525.938, 330 526.500 C 330 527.063, 337.426 534.938, 346.501 544.001 C 362.029 559.508, 363.129 560.401, 365.146 559.141 C 367.183 557.869, 367.261 557.946, 366.710 560.699 C 366.300 562.750, 360.707 568.968, 347.545 582.009 L 328.959 600.423 338.621 610.122 C 345.972 617.500, 348.120 620.246, 347.600 621.600 C 347.038 623.065, 345.195 621.665, 337.191 613.690 C 331.841 608.360, 327.017 604, 326.471 604 C 325.925 604, 317.838 611.650, 308.500 621 L 291.522 638 308.500 655 C 317.838 664.350, 325.911 672, 326.441 672 C 326.971 672, 328.948 670.537, 330.834 668.750 L 334.264 665.500 333.554 668.500 C 333.164 670.150, 332.204 672.210, 331.422 673.079 C 329.602 675.099, 329.624 676.443, 331.500 678 C 332.325 678.685, 333 680.174, 333 681.310 C 333 683.212, 332.762 683.146, 329.973 680.474 L 326.947 677.575 309.473 695.027 L 292 712.479 309.238 729.738 L 326.476 746.998 340.144 733.356 C 350.701 722.819, 354.219 719.870, 355.600 720.400 C 357.058 720.960, 354.769 723.710, 343.195 735.305 L 329.002 749.523 346.501 767.001 L 364 784.478 381.003 767.497 C 390.354 758.158, 397.892 750.195, 397.753 749.803 C 397.614 749.410, 393.531 744.794, 388.680 739.544 C 377.227 727.151, 379.970 726.526, 392.235 738.734 L 401.010 747.468 418.479 730.021 L 435.948 712.573 433.974 710.472 C 430.191 706.445, 432.445 704.191, 436.472 707.974 L 438.573 709.948 456.023 692.477 L 473.472 675.006 462.736 664.237 C 456.375 657.856, 452 652.666, 452 651.500 C 452 650.092, 455.202 652.726, 463.266 660.766 C 469.462 666.945, 474.979 672, 475.527 672 C 476.074 672, 484.158 664.354, 493.491 655.009 L 510.460 638.018 504.009 631.509 C 498.257 625.705, 497.822 625, 499.997 625 C 501.597 625, 504.256 626.797, 507.719 630.216 L 513 635.432 518.281 630.216 C 521.744 626.797, 524.403 625, 526.003 625 C 528.178 625, 527.743 625.706, 521.987 631.513 L 515.533 638.025 532.761 655.254 L 549.990 672.482 563.258 659.241 C 570.556 651.959, 576.858 646, 577.263 646 C 580.113 646, 576.253 651.223, 565.263 662.238 L 552.525 675.004 569.988 692.488 L 587.452 709.973 591.722 705.782 C 595.085 702.481, 596.251 701.851, 597.214 702.814 C 598.176 703.776, 597.539 704.931, 594.216 708.255 L 589.996 712.475 607.210 729.711 L 624.425 746.946 633.084 738.473 C 638.995 732.689, 642.490 730, 644.099 730 C 646.107 730, 645.201 731.292, 637.978 738.723 C 633.315 743.520, 629.163 747.608, 628.750 747.806 C 626.764 748.761, 629.230 751.750, 645.004 767.504 L 662.007 784.485 679.245 767.248 L 696.482 750.011 683.491 736.978 C 673.100 726.553, 670.800 723.756, 672 723 C 673.164 722.266, 676.357 724.903, 686.255 734.768 L 699.011 747.482 716.522 729.971 L 734.033 712.460 716.016 694.544 C 706.107 684.690, 698 675.920, 698 675.053 C 698 674.187, 705.875 665.613, 715.500 656 C 725.125 646.387, 733 638.171, 733 637.742 C 733 636.689, 700.332 604, 699.281 604 C 698.824 604, 695.097 607.375, 691 611.500 C 686.903 615.625, 683.201 619, 682.775 619 C 680.266 619, 682.905 614.548, 689 608.500 C 692.850 604.680, 696 601.086, 696 600.514 C 696 599.942, 689.444 592.955, 681.432 584.987 C 668.418 572.046, 664 566.806, 664 564.310 C 664 563.876, 671.877 571.388, 681.504 581.004 L 699.007 598.486 716.507 580.986 L 734.007 563.486 716.504 546.004 L 699 528.521 681.544 545.956 C 667.360 560.123, 663.959 563.055, 663.400 561.600 C 662.866 560.207, 666.468 556.049, 679.599 542.901 L 696.485 525.993 679.253 508.760 L 662.020 491.527 653.979 499.514 C 647.497 505.951, 645.756 507.209, 644.999 506 C 644.281 504.851, 645.859 502.689, 651.748 496.759 L 659.436 489.017 643.718 473.188 C 635.073 464.482, 628 456.865, 628 456.261 C 628 455.658, 627.715 454.339, 627.367 453.332 C 627.019 452.324, 634.669 459.370, 644.367 468.989 L 662 486.478 679 469.500 C 688.350 460.162, 696 452.062, 696 451.500 C 696 450.938, 688.350 442.838, 679 433.500 L 662 416.522 644.739 433.761 C 635.246 443.242, 627.146 451, 626.740 451 C 623.726 451, 628.284 445.234, 642.743 430.757 L 659.485 413.993 642.253 396.760 L 625.020 379.527 617.023 387.477 C 610.707 393.756, 608.769 395.169, 607.800 394.200 C 606.831 393.231, 608.243 391.294, 614.519 384.981 L 622.464 376.989 607.340 361.744 C 592.878 347.169, 589.097 342.570, 590.455 341.212 C 590.795 340.872, 598.708 348.220, 608.040 357.540 L 625.007 374.485 642.247 357.246 L 659.486 340.007 642.003 322.503 L 624.521 304.999 606.904 322.596 C 592.590 336.893, 589.159 339.856, 588.600 338.400 C 588.065 337.006, 591.697 332.820, 604.956 319.544 L 622 302.479 604.740 285.239 L 587.479 268 570.213 285.287 L 552.946 302.574 555.973 305.474 C 557.638 307.069, 559 308.729, 559 309.162 C 559 310.223, 553.916 308.234, 551.851 306.365 C 550.748 305.367, 549.980 305.224, 549.540 305.935 C 548.885 306.994, 545 307.466, 545 306.486 C 545 306.204, 545.559 305.077, 546.243 303.983 C 547.376 302.168, 545.968 300.475, 530.246 284.754 L 513.007 267.514 495.536 284.964 C 479.814 300.667, 478.212 302.576, 479.532 304.036 C 480.340 304.928, 481 305.960, 481 306.329 C 481 307.384, 477.188 307.113, 476.506 306.009 C 476.139 305.415, 474.814 305.782, 473.197 306.925 C 471.714 307.973, 469.375 309.145, 468 309.528 C 465.703 310.168, 465.803 309.909, 469.234 306.336 L 472.969 302.448 455.723 285.223 L 438.477 267.998 421.217 285.217 M 644.739 284.761 C 635.533 293.979, 628 301.972, 628 302.522 C 628 303.072, 635.650 311.162, 645 320.500 L 662 337.478 679 320.500 C 688.350 311.162, 696 303.062, 696 302.500 C 696 301.500, 662.965 268, 661.978 268 C 661.703 268, 653.945 275.542, 644.739 284.761 M 309.243 322.257 L 292 339.521 309.503 357.003 L 327.007 374.486 344.250 357.243 L 361.493 340 343.989 322.496 L 326.486 304.993 309.243 322.257 M 383.997 322.503 L 366.514 340.007 383.757 357.250 L 401 374.493 418.504 356.989 L 436.007 339.486 418.743 322.243 L 401.479 305 383.997 322.503 M 681.996 322.504 L 664.514 340.007 681.753 357.246 L 698.993 374.485 715.996 357.504 C 725.348 348.164, 733 340.062, 733 339.500 C 733 338.938, 725.458 330.945, 716.239 321.739 L 699.479 305 681.996 322.504 M 479.186 317.076 C 467.494 319.113, 454.281 328.556, 448.653 338.896 C 447.140 341.677, 438.542 367.250, 429.546 395.726 C 360.863 613.147, 344.768 664.597, 343.791 669.847 C 340.601 687.003, 351.384 707.832, 367.370 715.395 C 379.655 721.207, 394.093 721.485, 405.537 716.130 C 413.626 712.344, 422.766 703.814, 426.294 696.757 C 427.739 693.866, 434.205 674.284, 440.662 653.243 L 452.402 614.985 515.394 615.243 L 578.386 615.500 591.521 655.500 C 598.902 677.975, 605.842 697.377, 607.363 699.784 C 611.687 706.631, 617.939 712.036, 625.965 715.865 C 632.442 718.955, 634.626 719.478, 642.465 719.815 C 649.780 720.130, 652.705 719.797, 657.829 718.065 C 669.926 713.976, 677.969 706.853, 683.812 695.054 C 687.359 687.893, 687.500 687.206, 687.500 677.054 L 687.500 666.500 633.255 503.367 C 581.941 349.048, 578.774 339.913, 574.629 334.283 C 569.662 327.535, 560.531 320.911, 552.649 318.335 C 548.345 316.929, 542.330 316.611, 516 316.401 C 498.675 316.263, 482.109 316.567, 479.186 317.076 M 271.496 360.004 L 254.515 377.008 272.014 394.507 L 289.514 412.007 306.996 394.504 L 324.478 377 307.500 360 C 298.162 350.650, 290.062 343, 289.500 343 C 288.938 343, 280.836 350.652, 271.496 360.004 M 346.512 359.988 L 329.546 376.976 345.023 392.757 C 353.535 401.437, 361.353 409.137, 362.396 409.869 C 364.129 411.085, 365.775 409.718, 381.389 394.104 L 398.485 377.007 381.504 360.004 C 372.164 350.652, 364.287 343, 364 343 C 363.713 343, 355.843 350.645, 346.512 359.988 M 644.536 359.964 C 635.218 369.294, 627.798 377.145, 628.047 377.411 C 633.928 383.689, 661.452 411, 661.899 411 C 662.242 411, 670.162 403.350, 679.500 394 L 696.478 377 679.500 360 C 670.162 350.650, 662.287 343, 662 343 C 661.713 343, 653.854 350.634, 644.536 359.964 M 718.496 360.004 L 701.515 377.008 719.014 394.507 L 736.514 412.007 753.996 394.504 L 771.478 377 754.500 360 C 745.162 350.650, 737.062 343, 736.500 343 C 735.938 343, 727.836 350.652, 718.496 360.004 M 234.500 397 L 217.522 414 235 431.500 L 252.479 449 269.239 432.261 C 278.458 423.055, 286 415.062, 286 414.500 C 286 413.500, 252.965 380, 251.978 380 C 251.703 380, 243.838 387.650, 234.500 397 M 309.239 397.261 L 292 414.521 309.260 431.761 L 326.521 449 344 431.500 L 361.478 414 344.500 397 C 335.162 387.650, 327.287 380, 327 380 C 326.713 380, 318.721 387.767, 309.239 397.261 M 681.739 396.761 C 672.533 405.979, 665 413.777, 665 414.090 C 665 414.402, 672.704 422.438, 682.121 431.947 L 699.242 449.237 716.621 431.879 L 734 414.521 716.761 397.261 C 707.279 387.767, 699.287 380, 699 380 C 698.713 380, 690.945 387.542, 681.739 396.761 M 756.239 397.261 L 739 414.521 756.260 431.761 L 773.521 449 791 431.500 L 808.478 414 791.500 397 C 782.162 387.650, 774.287 380, 774 380 C 773.713 380, 765.721 387.767, 756.239 397.261 M 272.061 434.439 L 254.643 451.878 271.830 469.177 L 289.016 486.477 306.512 468.981 L 324.007 451.486 306.743 434.243 L 289.479 417 272.061 434.439 M 346.239 434.261 L 329 451.521 346.500 469 L 364 486.478 381 469.500 C 390.350 460.162, 398 452.062, 398 451.500 C 398 450.500, 364.965 417, 363.979 417 C 363.704 417, 355.721 424.767, 346.239 434.261 M 719.086 434.414 L 701.693 451.828 718.873 469.134 L 736.053 486.440 753.530 468.963 L 771.007 451.486 753.743 434.243 L 736.479 417 719.086 434.414 M 309.032 471.468 L 291.579 488.943 308.501 505.971 C 317.808 515.337, 325.895 523, 326.473 523 C 327.050 523, 335.164 515.348, 344.504 505.996 L 361.485 488.992 343.986 471.493 L 326.486 453.993 309.032 471.468 M 756.032 471.468 L 738.579 488.943 755.501 505.971 C 764.808 515.337, 772.895 523, 773.473 523 C 774.050 523, 782.164 515.348, 791.504 505.996 L 808.485 488.992 790.986 471.493 L 773.486 453.993 756.032 471.468 M 234.496 472.004 L 217.515 489.007 234.754 506.247 L 251.993 523.486 269.496 506.004 L 287 488.521 270.261 471.761 C 261.055 462.542, 253.062 455, 252.500 455 C 251.938 455, 243.836 462.652, 234.496 472.004 M 681.496 472.004 L 664.515 489.007 681.754 506.246 L 698.993 523.485 715.996 506.504 C 725.348 497.164, 733 489.062, 733 488.500 C 733 487.179, 700.799 455, 699.478 455 C 698.928 455, 690.836 462.652, 681.496 472.004 M 271.496 509.004 L 254.515 526.008 272.014 543.507 L 289.514 561.007 306.996 543.504 L 324.478 526 307.500 509 C 298.162 499.650, 290.062 492, 289.500 492 C 288.938 492, 280.836 499.652, 271.496 509.004 M 718.496 509.004 L 701.515 526.008 719.014 543.507 L 736.514 561.007 753.996 543.504 L 771.478 526 754.500 509 C 745.162 499.650, 737.062 492, 736.500 492 C 735.938 492, 727.836 499.652, 718.496 509.004 M 0.123 774.750 L 0 1024 246.250 1023.815 C 381.688 1023.713, 490.025 1023.501, 487 1023.342 C 449.497 1021.381, 424.938 1018.226, 393.500 1011.328 C 349.055 1001.576, 312.837 987.122, 268 961.242 C 182.192 911.713, 117.241 850.431, 73.785 778 C 32.965 709.964, 7.520 627.655, 1.599 544.500 C 0.410 527.811, 0.231 555.820, 0.123 774.750 M 234.564 545.936 C 221.445 559.072, 217.895 563.167, 218.742 564.186 C 219.343 564.909, 227.122 572.870, 236.029 581.877 L 252.224 598.255 269.612 580.888 L 287 563.521 269.761 546.261 C 260.279 536.767, 252.287 529, 252 529 C 251.713 529, 243.867 536.621, 234.564 545.936 M 309.239 546.261 L 292 563.521 309.260 580.761 L 326.521 598 344 580.500 L 361.478 563 344.500 546 C 335.162 536.650, 327.287 529, 327 529 C 326.713 529, 318.721 536.767, 309.239 546.261 M 756.239 546.261 L 739 563.521 756.260 580.761 L 773.521 598 791 580.500 L 808.478 563 791.500 546 C 782.162 536.650, 774.287 529, 774 529 C 773.713 529, 765.721 536.767, 756.239 546.261 M 1019.990 534.750 C 1019.963 549.588, 1015.849 584.324, 1011.374 607.500 C 993.940 697.777, 954.468 778.512, 892.104 851.450 C 847.553 903.555, 793.692 945.694, 735.500 973.972 C 677.501 1002.156, 611.013 1018.548, 537 1022.911 C 529.575 1023.349, 635.438 1023.773, 772.250 1023.853 L 1021 1024 1021 776.500 C 1021 640.375, 1020.775 529, 1020.500 529 C 1020.225 529, 1019.995 531.587, 1019.990 534.750 M 272.047 583.453 L 254.614 600.907 271.801 618.203 L 288.987 635.500 306.497 617.993 L 324.007 600.486 306.743 583.243 L 289.479 566 272.047 583.453 M 718.997 583.503 L 701.514 601.007 718.757 618.250 L 736 635.493 753.504 617.989 L 771.007 600.486 753.743 583.243 L 736.479 566 718.997 583.503 M 234.496 621.004 L 217.515 638.007 234.754 655.247 L 251.993 672.486 269.496 655.004 L 287 637.521 270.261 620.761 C 261.055 611.542, 253.062 604, 252.500 604 C 251.938 604, 243.836 611.652, 234.496 621.004 M 271.496 658.004 L 254.515 675.008 272.014 692.507 L 289.514 710.007 306.996 692.504 L 324.478 675 307.500 658 C 298.162 648.650, 290.062 641, 289.500 641 C 288.938 641, 280.836 648.652, 271.496 658.004 M 495.739 657.761 C 486.533 666.979, 479 674.972, 479 675.522 C 479 676.828, 511.215 709, 512.522 709 C 513.072 709, 521.162 701.350, 530.500 692 L 547.478 675 530.500 658 C 521.162 648.650, 513.287 641, 513 641 C 512.713 641, 504.945 648.542, 495.739 657.761 M 718.496 658.004 L 701.515 675.008 719.014 692.507 L 736.514 710.007 753.823 692.677 L 771.132 675.347 754.028 658.174 C 744.621 648.728, 736.599 641, 736.201 641 C 735.803 641, 727.836 648.652, 718.496 658.004 M 458.239 695.261 L 441 712.521 458.260 729.761 L 475.521 747 493 729.500 L 510.478 712 493.500 695 C 484.162 685.650, 476.287 678, 476 678 C 475.713 678, 467.721 685.767, 458.239 695.261 M 532.739 694.761 C 523.533 703.979, 516 711.972, 516 712.522 C 516 713.072, 523.650 721.162, 533 730.500 L 550 747.478 567.500 730 L 585 712.521 567.761 695.261 C 558.279 685.767, 550.287 678, 550 678 C 549.713 678, 541.945 685.542, 532.739 694.761 M 420.997 732.503 L 403.514 750.007 420.757 767.250 L 438 784.493 455.504 766.989 L 473.007 749.486 455.743 732.243 L 438.479 715 420.997 732.503 M 495.239 732.261 L 478 749.521 495.500 767 L 513 784.478 530 767.500 C 539.350 758.162, 547 750.050, 547 749.473 C 547 748.492, 513.892 715, 512.923 715 C 512.678 715, 504.721 722.767, 495.239 732.261 M 569.997 732.503 L 552.514 750.007 569.757 767.250 L 587 784.493 604.504 766.989 L 622.007 749.486 604.743 732.243 L 587.479 715 569.997 732.503 M 458.004 769.496 L 440.522 787 457.500 804 C 466.838 813.350, 474.938 821, 475.500 821 C 476.062 821, 484.164 813.348, 493.504 803.996 L 510.485 786.992 492.986 769.493 L 475.486 751.993 458.004 769.496 M 532.496 770.004 L 515.515 787.007 532.754 804.246 L 549.993 821.485 566.996 804.504 C 576.348 795.164, 584 787.234, 584 786.882 C 584 785.855, 551.421 753, 550.402 753 C 549.894 753, 541.836 760.652, 532.496 770.004 M 740.487 787.740 C 724.739 793.371, 714.457 805.119, 712.041 820.242 C 708.200 844.285, 727.791 865.500, 752.219 863.752 C 765.672 862.790, 780.104 852.819, 785.904 840.481 C 794.913 821.314, 787.216 799.139, 768.326 789.840 C 760.031 785.756, 748.473 784.884, 740.487 787.740 M 296.300 805.234 C 294.088 808.116, 260.002 865.784, 260.025 866.606 C 260.058 867.826, 275.976 877.133, 276.974 876.516 C 277.413 876.245, 280.575 871.288, 284 865.500 C 287.425 859.712, 290.520 854.796, 290.878 854.576 C 291.483 854.201, 310.530 865.171, 312.300 866.913 C 312.741 867.346, 310.154 872.606, 306.552 878.600 C 302.950 884.595, 300.008 889.950, 300.014 890.500 C 300.022 891.276, 312.494 899.259, 316.112 900.804 C 316.504 900.971, 325.238 887.093, 335.522 869.964 C 348.554 848.256, 353.902 838.502, 353.172 837.772 C 351.100 835.700, 337.597 828.131, 336.824 828.609 C 336.389 828.877, 333.286 833.799, 329.927 839.545 C 326.568 845.292, 323.393 850.257, 322.870 850.580 C 321.782 851.253, 301 839.230, 301 837.928 C 301 837.456, 303.717 832.546, 307.039 827.017 C 310.360 821.487, 313.322 816.325, 313.621 815.546 C 314.160 814.141, 312.164 812.628, 301.885 806.652 C 298.283 804.557, 297.058 804.246, 296.300 805.234 M 741.502 807.575 C 735.581 810.663, 732.746 814.505, 731.504 821.125 C 730.496 826.499, 732.610 832.622, 737.189 837.589 C 753.210 854.970, 779.170 835.085, 766.324 815.273 C 762.378 809.188, 756.778 805.999, 750.050 806.006 C 746.974 806.010, 743.164 806.709, 741.502 807.575 M 659 840.438 L 650.500 843.672 650.208 850.769 L 649.915 857.867 645.208 859.616 C 642.618 860.579, 636.675 862.844, 632 864.650 L 623.500 867.935 618.517 862.798 L 613.534 857.660 603.767 861.031 C 598.395 862.884, 594 864.819, 594 865.331 C 594 865.842, 600.632 873.290, 608.737 881.880 C 616.843 890.471, 626.431 900.650, 630.044 904.500 C 633.657 908.350, 639.150 914.200, 642.251 917.500 L 647.890 923.500 656.516 920.517 C 661.261 918.876, 665.501 917.076, 665.939 916.517 C 666.378 915.958, 667.259 902.450, 667.897 886.500 C 668.535 870.550, 669.336 852.888, 669.676 847.250 C 670.185 838.820, 670.047 837.018, 668.897 837.102 C 668.129 837.158, 663.675 838.659, 659 840.438 M 412 857.344 C 412 858.070, 397.886 910.434, 397.616 910.712 C 397.502 910.828, 393.383 909.816, 388.462 908.462 C 383.541 907.108, 378.773 906, 377.867 906 C 376.652 906, 375.645 908.127, 374.035 914.093 C 372.834 918.544, 371.998 922.314, 372.176 922.472 C 373.423 923.575, 433.425 938.952, 433.981 938.311 C 435.154 936.958, 438.253 924.102, 437.733 922.746 C 437.466 922.050, 432.916 920.378, 427.623 919.031 C 422.315 917.681, 418 916.056, 418 915.409 C 418 914.466, 429.698 870.015, 431.561 863.879 C 431.956 862.577, 430.411 861.847, 423.694 860.162 C 419.097 859.009, 414.585 857.778, 413.668 857.426 C 412.751 857.074, 412 857.037, 412 857.344 M 514.286 872.451 C 504.131 875.624, 497.847 881.489, 494.541 890.876 C 492.827 895.743, 492.608 905.885, 493.666 931.390 L 494.325 947.279 504.346 946.623 C 509.858 946.261, 514.543 945.790, 514.758 945.575 C 514.974 945.360, 514.679 935.550, 514.105 923.776 C 513.375 908.826, 513.377 901.219, 514.111 898.561 C 516.195 891.013, 523.631 887.366, 531.362 890.101 C 539.209 892.876, 540.252 896.739, 541.522 927.750 L 542.229 945 545.865 944.993 C 547.864 944.989, 552.536 944.699, 556.247 944.349 L 562.993 943.711 562.432 930.606 C 561.202 901.913, 560.243 893.210, 557.695 887.644 C 552.384 876.044, 543.179 870.955, 527.712 871.067 C 522.646 871.104, 516.604 871.726, 514.286 872.451 M 641.750 877.827 C 638.038 879.265, 635 880.697, 635 881.009 C 635 881.786, 647.094 895.417, 648.152 895.833 C 648.619 896.017, 649 891.404, 649 885.583 C 649 879.763, 648.888 875.048, 648.750 875.106 C 648.612 875.165, 645.462 876.389, 641.750 877.827" stroke="none" fill="#FFFFFF" fill-rule="evenodd"/>
</svg>