<svg xmlns="http://www.w3.org/2000/svg" width="256" height="256" viewBox="0 0 200 200" version="1.1">
  <!-- Rounded Black Background -->
  <rect width="200" height="200" rx="40" fill="#000000"/>
  
  <!-- White Icon on Top -->
  <path d="M 86.112 29.581 C 67.123 34.687, 50.339 52.557, 46.936 71.290 C 46.287 74.860, 46.002 90.584, 46.192 112.290 L 46.500 147.500 49.270 153.142 C 52.345 159.401, 58.531 165.648, 65.151 169.176 C 68.828 171.136, 70.967 171.493, 79 171.482 C 86.870 171.471, 89.296 171.076, 93.136 169.178 C 104.171 163.724, 110.059 155.403, 112.290 142.106 L 113.500 134.896 119.219 132.573 C 140.326 123.995, 154.138 104.306, 154.276 82.597 C 154.374 67.186, 149.331 55.133, 138.095 43.920 C 129.980 35.821, 123.694 32.138, 113.540 29.530 C 106.155 27.634, 93.262 27.658, 86.112 29.581 M 90.281 40.970 C 75.154 44.565, 61.909 58.509, 59.014 73.886 C 57.659 81.087, 57.697 140.368, 59.060 145.277 C 60.425 150.193, 65.450 155.845, 70.491 158.135 C 83.254 163.933, 98.654 155.216, 99.787 141.552 L 100.230 136.209 94.846 134.643 C 83.742 131.416, 75.713 123.508, 72.478 112.614 C 70.763 106.839, 70.521 91.265, 72.060 85.723 C 74.205 77.998, 83.178 71.070, 91.101 71.022 C 98.999 70.974, 106.607 75.458, 110.245 82.308 C 112.234 86.051, 112.527 88.399, 112.986 104.231 L 113.500 121.962 118.500 119.601 C 143.542 107.774, 149.749 73.682, 130.589 53.199 C 120.771 42.703, 104.175 37.668, 90.281 40.970 M 88.020 84.284 C 86.656 84.975, 84.975 86.656, 84.284 88.020 C 82.757 91.039, 82.619 104.088, 84.060 109.277 C 85.793 115.516, 93.640 123, 98.450 123 C 99.789 123, 100 120.694, 100 106.082 C 100 96.777, 99.720 88.435, 99.379 87.545 C 98.719 85.826, 93.975 82.990, 91.800 83.015 C 91.085 83.023, 89.384 83.594, 88.020 84.284" fill="#ffffff" fill-rule="evenodd"/>
</svg>
