<svg width="256" height="256" viewBox="0 0 512 512" fill="none" xmlns="http://www.w3.org/2000/svg">
  <path fill-rule="evenodd" clip-rule="evenodd" d="m506.523 266.523-37.839-37.839A15.983 15.983 0 0 1 464 217.383v-46.317c0-42.792-4.456-58.31-12.822-73.955-8.367-15.644-20.645-27.922-36.289-36.289C399.244 52.456 383.726 48 340.934 48H279.73a3.204 3.204 0 0 1-3.207-3.2c0-.847.337-1.66.937-2.26l37.842-37.842A16.05 16.05 0 0 1 326.652 0h21.259c57.058 0 77.748 5.94 98.607 17.096 20.859 11.156 37.23 27.527 48.386 48.386C506.059 86.342 512 107.03 512 164.089v100.174a3.21 3.21 0 0 1-5.477 2.26Z" fill="#E55737"/>
  <path fill-rule="evenodd" clip-rule="evenodd" d="m245.46 506.54 37.841-37.841A16.05 16.05 0 0 1 294.652 464h46.281c42.793 0 58.311-4.456 73.955-12.822 15.645-8.367 27.923-20.645 36.289-36.289C459.544 399.244 464 383.726 464 340.934v-61.197c0-1.767 1.435-3.2 3.207-3.2a3.21 3.21 0 0 1 2.27.94l37.839 37.839A15.983 15.983 0 0 1 512 326.617v21.294c0 57.058-5.941 77.748-17.097 98.607-11.155 20.859-27.526 37.23-48.385 48.386C425.659 506.059 404.968 512 347.911 512H247.73a3.197 3.197 0 0 1-2.27-5.46Z" fill="#F6C943"/>
  <path fill-rule="evenodd" clip-rule="evenodd" d="m5.477 245.477 37.839 37.839A15.98 15.98 0 0 1 48 294.617v46.317c0 42.792 4.456 58.31 12.822 73.955 8.367 15.644 20.645 27.922 36.29 36.289C112.755 459.544 128.273 464 171.065 464h61.204a3.204 3.204 0 0 1 3.207 3.2c0 .848-.337 1.66-.937 2.26l-37.842 37.842a16.05 16.05 0 0 1-11.35 4.698h-21.259c-57.058 0-77.748-5.941-98.607-17.096-20.86-11.156-37.23-27.527-48.386-48.386C5.941 425.659 0 404.969 0 347.911V247.737a3.209 3.209 0 0 1 5.477-2.26Z" fill="#7B8FEC"/>
  <path fill-rule="evenodd" clip-rule="evenodd" d="m266.54 5.46-37.842 37.842A16.05 16.05 0 0 1 217.348 48h-46.282c-42.792 0-58.31 4.456-73.955 12.822-15.644 8.367-27.922 20.645-36.289 36.29C52.456 112.755 48 128.273 48 171.065v61.197a3.21 3.21 0 0 1-5.477 2.26L4.684 196.684A15.981 15.981 0 0 1 0 185.383v-21.294c0-57.058 5.94-77.748 17.096-98.607 11.156-20.86 27.527-37.23 48.386-48.386C86.342 5.941 107.03 0 164.089 0H264.27a3.203 3.203 0 0 1 3.206 3.2c0 .848-.336 1.66-.936 2.26Z" fill="#D77EE9"/>
  <path fill-rule="evenodd" clip-rule="evenodd" d="m426.575 186.815-51.599-49.314a31.882 31.882 0 0 0-11.66-7.443A31.934 31.934 0 0 0 352 128H199.695a3.197 3.197 0 0 1-2.27-5.461l37.877-37.845A16.054 16.054 0 0 1 246.648 80H368c35.346 0 64 28.654 64 64v40.504c0 1.767-1.436 3.2-3.207 3.2a3.207 3.207 0 0 1-2.218-.889Z" fill="#E55737"/>
  <path fill-rule="evenodd" clip-rule="evenodd" d="m325.169 426.632 49.33-51.616a31.882 31.882 0 0 0 7.443-11.66A31.934 31.934 0 0 0 384 352.04V199.742c0-1.768 1.436-3.2 3.207-3.2.852 0 1.669.338 2.271.94l37.843 37.875A15.984 15.984 0 0 1 432 246.654V368.04c0 35.346-28.654 64-64 64h-40.51a3.204 3.204 0 0 1-3.207-3.2c0-.822.317-1.613.886-2.208Z" fill="#F6C943"/>
  <path fill-rule="evenodd" clip-rule="evenodd" d="m85.425 325.185 51.599 49.314a31.882 31.882 0 0 0 11.66 7.443A31.934 31.934 0 0 0 160 384h152.306a3.198 3.198 0 0 1 2.269 5.461l-37.877 37.845A16.053 16.053 0 0 1 265.352 432H144c-35.346 0-64-28.654-64-64v-40.504c0-1.767 1.436-3.2 3.207-3.2.827 0 1.621.318 2.218.889Z" fill="#7B8FEC"/>
  <path fill-rule="evenodd" clip-rule="evenodd" d="m186.831 85.409-49.33 51.615a31.867 31.867 0 0 0-7.442 11.66A31.913 31.913 0 0 0 128 160v152.299c0 1.767-1.436 3.2-3.207 3.2a3.212 3.212 0 0 1-2.271-.941L84.68 276.683A15.98 15.98 0 0 1 80 265.387V144c0-35.346 28.654-64 64-64h40.51a3.203 3.203 0 0 1 3.207 3.2c0 .822-.317 1.613-.886 2.209Z" fill="#D77EE9"/>
</svg>
