<svg xmlns="http://www.w3.org/2000/svg" width="256" height="256" viewBox="0 0 460 460" version="1.1">
  <!-- Rounded Black Background -->
  <rect width="460" height="460" rx="40" fill="#000000"/>

  <!-- Icon in White -->
  <path d="M 311.500 102.981 C 310.400 103.452, 263.063 150.336, 206.307 207.168 C 135.440 278.131, 102.905 311.368, 102.444 313.269 C 101.679 316.428, 103.305 321.061, 106.051 323.546 C 107.078 324.476, 110.006 325.472, 112.557 325.759 L 117.195 326.282 221.128 222.391 C 280.542 163.001, 325.324 117.477, 325.674 116.113 C 327.815 107.762, 319.133 99.719, 311.500 102.981 M 331.500 221.185 C 328.646 222.790, 222.520 329.053, 221.143 331.684 C 219.721 334.401, 219.666 339.507, 221.030 342.055 C 223.261 346.225, 230.836 348.227, 235.316 345.832 C 238.169 344.306, 344.306 238.169, 345.832 235.316 C 349.422 228.603, 344.633 219.973, 337.349 220.030 C 335.232 220.047, 332.600 220.567, 331.500 221.185"
    fill="#ffffff" fill-rule="evenodd"/>
</svg>
