<svg xmlns="http://www.w3.org/2000/svg" width="256" height="256" viewBox="0 0 400 400" version="1.1">
  <!-- Rounded Black Background -->
  <rect width="400" height="400" rx="40" fill="#000000" />

  <!-- White Icon -->
  <path d="M 174.500 40.410 C 114.353 50.482, 65.057 92.578, 46.166 150 C 39.512 170.227, 37.312 188.672, 38.940 210.601 C 40.218 227.816, 41.926 236.857, 46.505 250.644 C 66.475 310.779, 124.196 355.360, 187.500 359.542 C 198.702 360.282, 221.379 358.722, 232.305 356.459 C 286.776 345.181, 335.010 300.822, 351.979 246.398 C 360.500 219.071, 361.042 187.264, 353.496 157.415 C 339.206 100.890, 289.504 55.177, 227.867 41.869 C 215.704 39.243, 186.272 38.438, 174.500 40.410 M 175.500 60.586 C 164.628 62.498, 150.529 67.190, 138.472 72.909 C 93.893 94.053, 64.019 136.623, 58.925 186.262 C 57.786 197.362, 59.015 218.185, 61.508 230.037 C 66.952 255.917, 80.429 279.482, 101.346 299.696 C 122.252 319.899, 145.396 332.205, 172.818 337.701 C 183.935 339.929, 209.387 339.887, 223.156 337.618 C 260.104 331.530, 293.328 309.379, 315.526 276.034 C 334.602 247.380, 342.175 214.902, 337.570 181.500 C 335.212 164.403, 331.716 152.133, 325.600 139.500 C 305.521 98.020, 264.619 68.110, 217.530 60.473 C 206.355 58.660, 186.144 58.715, 175.500 60.586 M 261 106.842 C 240.293 123.377, 162.876 187.070, 158.528 191.150 C 156.605 192.953, 157.227 193, 183.097 193 L 209.639 193 240.369 146.383 C 257.270 120.743, 270.964 99.651, 270.799 99.511 C 270.635 99.371, 266.225 102.670, 261 106.842 M 158.589 256.617 C 141.710 282.257, 128.036 303.355, 128.200 303.502 C 128.792 304.030, 225.537 225.127, 239.437 212.779 L 242.500 210.059 215.888 210.029 L 189.276 210 158.589 256.617"
        fill="#ffffff" fill-rule="evenodd"/>
</svg>
