<svg xmlns="http://www.w3.org/2000/svg" fill="none" viewBox="0 0 24 24" id="Ubuntu--Streamline-Svg-Logos" height="256" width="256">
  <desc>
    Ubuntu Streamline Icon: https://streamlinehq.com
  </desc>
  <path fill="#dd4814" d="M23.75 12.0002c0 6.48895 -5.2606 11.7497 -11.749975 11.7497C5.510525 23.7499 0.25 18.48915 0.25 12.0002 0.25 5.51085 5.5106 0.250245 12.000025 0.250245 18.489475 0.250245 23.75 5.51085 23.75 12.0002Z" stroke-width="0.25"></path>
  <path fill="#ffffff" d="M4.01035 10.4311c-0.8668 0 -1.569065 0.702325 -1.569065 1.569075 0 0.866325 0.702265 1.5686 1.569065 1.5686 0.86635 0 1.5686 -0.702275 1.5686 -1.5686 0 -0.86675 -0.70225 -1.569075 -1.5686 -1.569075Zm11.20075 7.129925c-0.75035 0.433375 -1.007625 1.392275 -0.574175 2.1422 0.4329 0.75035 1.3918 1.00755 2.14215 0.574175 0.75025 -0.432875 1.007525 -1.3918 0.57415 -2.1422 -0.432875 -0.74985 -1.39235 -1.007075 -2.142125 -0.574175ZM7.417875 12.000175c0 -1.550275 0.770025 -2.9199 1.9483 -3.749275l-1.1469 -1.92095c-1.372525 0.917475 -2.39375 2.319425 -2.81815 3.9614 0.4952 0.404075 0.812175 1.0192 0.812175 1.70875 0 0.689125 -0.316975 1.304275 -0.812175 1.70835 0.42385 1.64245 1.445075 3.044475 2.81815 3.961925l1.1469 -1.9214c-1.178275 -0.8289 -1.9483 -2.19845 -1.9483 -3.7488ZM12 7.417575c2.3938 0 4.357775 1.8354 4.563925 4.1761l2.23535 -0.03295c-0.11 -1.72805 -0.8649 -3.279375 -2.02485 -4.4201 -0.596475 0.22535 -1.285475 0.190875 -1.881 -0.152425 -0.59655 -0.34425 -0.970575 -0.924975 -1.072825 -1.555375 -0.57975 -0.160025 -1.189925 -0.247625 -1.82075 -0.247625 -1.08445 0 -2.10975 0.254725 -3.020075 0.7053l1.090025 1.95335c0.5864 -0.2729 1.240575 -0.426275 1.9302 -0.426275Zm0 9.164725c-0.689625 0 -1.3438 -0.15345 -1.930125 -0.426275l-1.09005 1.953275c0.91035 0.451125 1.93565 0.7059 3.020175 0.7059 0.6308 0 1.240975 -0.08765 1.820675 -0.24815 0.10225 -0.6304 0.476425 -1.210575 1.072825 -1.555475 0.59595 -0.343825 1.284525 -0.377675 1.881 -0.152325 1.15995 -1.14075 1.91485 -2.69205 2.02485 -4.4201l-2.2359 -0.03295C16.357775 14.7475 14.393875 16.5823 12 16.5823Zm3.21055 -10.14395c0.750325 0.433325 1.7093 0.17665 2.1422 -0.573675 0.433375 -0.75035 0.176725 -1.709325 -0.573675 -2.142775 -0.75035 -0.432875 -1.70925 -0.175675 -2.142775 0.57465 -0.432825 0.749925 -0.175625 1.708925 0.57425 2.1418Z" stroke-width="0.25"></path>
</svg>